<svg width="64" height="64" viewBox="0 0 120 120" xmlns="http://www.w3.org/2000/svg">
  <line x1="60" y1="64" x2="60" y2="38" stroke="#8a5a26" stroke-width="1.4"/>
  <line x1="60" y1="64" x2="84.7" y2="56" stroke="#8a5a26" stroke-width="1.4"/>
  <line x1="60" y1="64" x2="75.3" y2="85" stroke="#8a5a26" stroke-width="1.4"/>
  <line x1="60" y1="64" x2="44.7" y2="85" stroke="#8a5a26" stroke-width="1.4"/>
  <line x1="60" y1="64" x2="35.3" y2="56" stroke="#8a5a26" stroke-width="1.4"/>
  <line x1="60" y1="38" x2="84.7" y2="56" stroke="#8a5a26" stroke-width="1.4"/>
  <line x1="84.7" y1="56" x2="75.3" y2="85" stroke="#8a5a26" stroke-width="1.4"/>
  <line x1="75.3" y1="85" x2="44.7" y2="85" stroke="#8a5a26" stroke-width="1.4"/>
  <line x1="44.7" y1="85" x2="35.3" y2="56" stroke="#8a5a26" stroke-width="1.4"/>
  <line x1="35.3" y1="56" x2="60" y2="38" stroke="#8a5a26" stroke-width="1.4"/>
  <circle cx="60" cy="38" r="6" fill="#F2962E"/>
  <circle cx="84.7" cy="56" r="6" fill="#F2962E"/>
  <circle cx="75.3" cy="85" r="6" fill="#F2962E"/>
  <circle cx="44.7" cy="85" r="6" fill="#F2962E"/>
  <circle cx="35.3" cy="56" r="6" fill="#F2962E"/>
  <circle cx="60" cy="64" r="7.5" fill="#FAC775"/>
</svg>